<svg width="800" height="400" viewBox="0 0 800 400" xmlns="http://www.w3.org/2000/svg"><mask id="satori_om-id"><rect x="0" y="0" width="800" height="400" fill="#fff"/></mask><rect x="0" y="0" width="800" height="400" fill="#fff"/><clipPath id="satori_cp-id-0"><rect x="363" y="128" width="75" height="65"/></clipPath><mask id="satori_om-id-0"><rect x="363" y="128" width="75" height="65" fill="#fff"/></mask><image x="363" y="128" width="75" height="65" href="data:image/svg+xml;utf8,%3Csvg  fill=%22%23000%22 xmlns=%22http://www.w3.org/2000/svg%22 width=%22NaN%22 height=%22null%22 viewBox=%220 0 75 65%22%3E%3Cpath d=%22M37.59.25l36.95 64H.64l36.95-64z%22%3E%3C/path%3E%3C/svg%3E" preserveAspectRatio="none" clip-path="url(#satori_cp-id-0)" mask="url(#satori_om-id-0)"/><mask id="satori_om-id-0-0"><rect x="363" y="128" width="0" height="65" fill="#fff"/></mask><mask id="satori_om-id-1"><rect x="261" y="233" width="279" height="39" fill="#fff"/></mask><path fill="black" d="M271.5 264L266.4 264L261.6 246.5L266.5 246.5L269.2 258.3L269.4 258.3L272.2 246.5L277.0 246.5L279.9 258.2L280.0 258.2L282.7 246.5L287.6 246.5L282.8 264L277.7 264L274.7 253.0L274.5 253.0L271.5 264ZM297.6 264.3L297.6 264.3Q294.9 264.3 293.0 263.2Q291.1 262.1 290.0 260.1Q289 258.0 289 255.3L289 255.3Q289 252.6 290.0 250.6Q291.1 248.6 293.0 247.4Q294.9 246.3 297.6 246.3L297.6 246.3Q300.2 246.3 302.2 247.4Q304.1 248.6 305.1 250.6Q306.2 252.6 306.2 255.3L306.2 255.3Q306.2 258.0 305.1 260.1Q304.1 262.1 302.2 263.2Q300.2 264.3 297.6 264.3ZM297.6 260.6L297.6 260.6Q298.8 260.6 299.6 259.9Q300.4 259.2 300.8 258.0Q301.3 256.8 301.3 255.3L301.3 255.3Q301.3 253.8 300.8 252.6Q300.4 251.4 299.6 250.7Q298.8 250.0 297.6 250.0L297.6 250.0Q296.4 250.0 295.6 250.7Q294.8 251.4 294.3 252.6Q293.9 253.8 293.9 255.3L293.9 255.3Q293.9 256.8 294.3 258.0Q294.8 259.2 295.6 259.9Q296.4 260.6 297.6 260.6ZM317.2 264.3L317.2 264.3Q314.6 264.3 312.7 263.2Q310.7 262.1 309.7 260.1Q308.6 258.0 308.6 255.3L308.6 255.3Q308.6 252.6 309.7 250.6Q310.7 248.6 312.7 247.4Q314.6 246.3 317.2 246.3L317.2 246.3Q319.9 246.3 321.8 247.4Q323.7 248.6 324.8 250.6Q325.8 252.6 325.8 255.3L325.8 255.3Q325.8 258.0 324.8 260.1Q323.7 262.1 321.8 263.2Q319.9 264.3 317.2 264.3ZM317.2 260.6L317.2 260.6Q318.5 260.6 319.3 259.9Q320.1 259.2 320.5 258.0Q320.9 256.8 320.9 255.3L320.9 255.3Q320.9 253.8 320.5 252.6Q320.1 251.4 319.3 250.7Q318.5 250.0 317.2 250.0L317.2 250.0Q316.0 250.0 315.2 250.7Q314.4 251.4 314.0 252.6Q313.6 253.8 313.6 255.3L313.6 255.3Q313.6 256.8 314.0 258.0Q314.4 259.2 315.2 259.9Q316.0 260.6 317.2 260.6ZM333.8 253.9L333.8 253.9L333.8 264L329.0 264L329.0 246.5L333.6 246.5L333.6 249.6L333.8 249.6Q334.4 248.1 335.7 247.2Q337.1 246.3 339.0 246.3L339.0 246.3Q340.9 246.3 342.2 247.1Q343.6 247.9 344.3 249.4Q345.1 250.9 345.1 252.9L345.1 252.9L345.1 264L340.2 264L340.2 253.8Q340.2 252.1 339.4 251.2Q338.6 250.3 337.1 250.3L337.1 250.3Q336.1 250.3 335.4 250.8Q334.7 251.2 334.2 252.0Q333.8 252.8 333.8 253.9ZM348.9 264.8L348.9 246.5L353.7 246.5L353.7 264.9Q353.7 266.9 352.9 268.1Q352.1 269.4 350.6 270.0Q349.2 270.5 347.1 270.5L347.1 270.5Q346.9 270.5 346.6 270.5Q346.4 270.5 346.1 270.5L346.1 270.5L346.1 266.7Q346.3 266.8 346.5 266.8Q346.6 266.8 346.8 266.8L346.8 266.8Q347.9 266.8 348.4 266.3Q348.9 265.8 348.9 264.8L348.9 264.8ZM351.3 244.3L351.3 244.3Q350.2 244.3 349.4 243.6Q348.7 242.9 348.7 241.8L348.7 241.8Q348.7 240.8 349.4 240.1Q350.2 239.4 351.3 239.4L351.3 239.4Q352.4 239.4 353.1 240.1Q353.9 240.8 353.9 241.8L353.9 241.8Q353.9 242.9 353.1 243.6Q352.4 244.3 351.3 244.3ZM362.6 264.3L362.6 264.3Q360.9 264.3 359.6 263.7Q358.3 263.2 357.5 262.0Q356.8 260.9 356.8 259.1L356.8 259.1Q356.8 257.7 357.3 256.7Q357.8 255.7 358.7 255.1Q359.7 254.5 360.8 254.2Q362.0 253.9 363.3 253.8L363.3 253.8Q364.8 253.6 365.8 253.4Q366.7 253.3 367.1 253.0Q367.5 252.7 367.5 252.2L367.5 252.2L367.5 252.1Q367.5 251.0 366.9 250.4Q366.2 249.9 365.0 249.9L365.0 249.9Q363.6 249.9 362.9 250.4Q362.1 251 361.9 251.9L361.9 251.9L357.4 251.5Q357.7 249.9 358.7 248.7Q359.7 247.6 361.3 246.9Q362.9 246.3 365.0 246.3L365.0 246.3Q366.4 246.3 367.8 246.7Q369.1 247 370.1 247.7Q371.2 248.4 371.8 249.6Q372.4 250.7 372.4 252.2L372.4 252.2L372.4 264L367.8 264L367.8 261.6L367.7 261.6Q367.2 262.4 366.5 263.0Q365.8 263.6 364.8 264.0Q363.9 264.3 362.6 264.3ZM363.9 261.0L363.9 261.0Q365.0 261.0 365.8 260.6Q366.6 260.1 367.1 259.4Q367.6 258.7 367.6 257.8L367.6 257.8L367.6 255.9Q367.4 256.1 367.0 256.2Q366.6 256.3 366.1 256.4Q365.6 256.5 365.1 256.6Q364.6 256.6 364.2 256.7L364.2 256.7Q363.4 256.8 362.7 257.1Q362.1 257.4 361.7 257.8Q361.4 258.3 361.4 259.0L361.4 259.0Q361.4 260.0 362.1 260.5Q362.8 261.0 363.9 261.0ZM381.0 253.9L381.0 253.9L381.0 264L376.1 264L376.1 246.5L380.8 246.5L380.8 249.6L381.0 249.6Q381.5 248.1 382.9 247.2Q384.3 246.3 386.2 246.3L386.2 246.3Q388.0 246.3 389.4 247.1Q390.7 247.9 391.5 249.4Q392.2 250.9 392.2 252.9L392.2 252.9L392.2 264L387.4 264L387.4 253.8Q387.4 252.1 386.6 251.2Q385.7 250.3 384.3 250.3L384.3 250.3Q383.3 250.3 382.6 250.8Q381.8 251.2 381.4 252.0Q381.0 252.8 381.0 253.9ZM403.9 270.9L403.9 270.9Q401.6 270.9 399.9 270.3Q398.2 269.6 397.2 268.5Q396.2 267.4 395.9 266.0L395.9 266.0L400.4 265.4Q400.6 266.0 401.1 266.4Q401.5 266.9 402.2 267.2Q403.0 267.4 404.0 267.4L404.0 267.4Q405.6 267.4 406.6 266.7Q407.7 265.9 407.7 264.1L407.7 264.1L407.7 260.9L407.5 260.9Q407.1 261.6 406.5 262.3Q405.9 262.9 404.9 263.3Q403.9 263.8 402.5 263.8L402.5 263.8Q400.5 263.8 398.9 262.8Q397.3 261.9 396.3 260.0Q395.4 258.1 395.4 255.2L395.4 255.2Q395.4 252.3 396.4 250.3Q397.3 248.3 398.9 247.3Q400.5 246.3 402.5 246.3L402.5 246.3Q403.9 246.3 404.9 246.8Q405.9 247.3 406.5 248.0Q407.1 248.8 407.5 249.5L407.5 249.5L407.6 249.5L407.6 246.5L412.4 246.5L412.4 264.2Q412.4 266.4 411.4 267.9Q410.3 269.4 408.3 270.2Q406.4 270.9 403.9 270.9ZM404.0 260.1L404.0 260.1Q405.2 260.1 406.0 259.5Q406.8 258.9 407.2 257.8Q407.7 256.8 407.7 255.2L407.7 255.2Q407.7 253.7 407.2 252.6Q406.8 251.4 406.0 250.8Q405.2 250.2 404.0 250.2L404.0 250.2Q402.8 250.2 402.0 250.8Q401.2 251.5 400.8 252.6Q400.3 253.7 400.3 255.2L400.3 255.2Q400.3 256.7 400.8 257.8Q401.2 258.9 402.0 259.5Q402.8 260.1 404.0 260.1Z M429.1 264.3L429.1 264.3Q427.5 264.3 426.2 263.7Q424.9 263.2 424.1 262.0Q423.3 260.9 423.3 259.1L423.3 259.1Q423.3 257.7 423.9 256.7Q424.4 255.7 425.3 255.1Q426.3 254.5 427.4 254.2Q428.6 253.9 429.9 253.8L429.9 253.8Q431.4 253.6 432.4 253.4Q433.3 253.3 433.7 253.0Q434.1 252.7 434.1 252.2L434.1 252.2L434.1 252.1Q434.1 251.0 433.4 250.4Q432.8 249.9 431.5 249.9L431.5 249.9Q430.2 249.9 429.5 250.4Q428.7 251 428.4 251.9L428.4 251.9L424.0 251.5Q424.3 249.9 425.3 248.7Q426.3 247.6 427.9 246.9Q429.5 246.3 431.6 246.3L431.6 246.3Q433.0 246.3 434.3 246.7Q435.7 247 436.7 247.7Q437.8 248.4 438.4 249.6Q439.0 250.7 439.0 252.2L439.0 252.2L439.0 264L434.4 264L434.4 261.6L434.2 261.6Q433.8 262.4 433.1 263.0Q432.4 263.6 431.4 264.0Q430.4 264.3 429.1 264.3ZM430.5 261.0L430.5 261.0Q431.6 261.0 432.4 260.6Q433.2 260.1 433.7 259.4Q434.2 258.7 434.2 257.8L434.2 257.8L434.2 255.9Q433.9 256.1 433.5 256.2Q433.1 256.3 432.7 256.4Q432.2 256.5 431.7 256.6Q431.2 256.6 430.8 256.7L430.8 256.7Q429.9 256.8 429.3 257.1Q428.7 257.4 428.3 257.8Q428.0 258.3 428.0 259.0L428.0 259.0Q428.0 260.0 428.7 260.5Q429.4 261.0 430.5 261.0ZM447.6 264L442.7 264L442.7 246.5L447.4 246.5L447.4 249.6L447.6 249.6Q448.1 248.0 449.2 247.1Q450.3 246.3 451.8 246.3L451.8 246.3Q452.2 246.3 452.6 246.3Q453 246.4 453.3 246.5L453.3 246.5L453.3 250.8Q453.0 250.7 452.4 250.6Q451.8 250.5 451.3 250.5L451.3 250.5Q450.2 250.5 449.4 251.0Q448.5 251.4 448.1 252.2Q447.6 253.1 447.6 254.1L447.6 254.1L447.6 264ZM462.9 264.3L462.9 264.3Q460.2 264.3 458.3 263.2Q456.3 262.1 455.3 260.0Q454.3 258.0 454.3 255.3L454.3 255.3Q454.3 252.7 455.3 250.6Q456.4 248.6 458.3 247.5Q460.2 246.3 462.9 246.3L462.9 246.3Q465.1 246.3 466.9 247.1Q468.6 248.0 469.6 249.5Q470.6 251.0 470.7 253L470.7 253L466.1 253Q465.9 251.7 465.1 250.9Q464.3 250.1 462.9 250.1L462.9 250.1Q461.8 250.1 461.0 250.7Q460.1 251.3 459.7 252.5Q459.2 253.6 459.2 255.3L459.2 255.3Q459.2 256.9 459.7 258.1Q460.1 259.3 461.0 259.9Q461.8 260.5 462.9 260.5L462.9 260.5Q463.8 260.5 464.4 260.2Q465.1 259.8 465.5 259.2Q466.0 258.5 466.1 257.6L466.1 257.6L470.7 257.6Q470.6 259.6 469.6 261.1Q468.6 262.6 466.9 263.5Q465.2 264.3 462.9 264.3ZM478.6 253.9L478.6 253.9L478.6 264L473.8 264L473.8 240.7L478.5 240.7L478.5 249.6L478.7 249.6Q479.3 248.1 480.6 247.2Q481.9 246.3 483.9 246.3L483.9 246.3Q485.7 246.3 487.1 247.1Q488.4 247.9 489.2 249.4Q490.0 250.8 489.9 252.9L489.9 252.9L489.9 264L485.1 264L485.1 253.8Q485.1 252.1 484.3 251.2Q483.5 250.3 482.0 250.3L482.0 250.3Q481 250.3 480.2 250.8Q479.5 251.2 479.1 252.0Q478.6 252.8 478.6 253.9ZM498.6 264L493.8 264L493.8 246.5L498.6 246.5L498.6 264ZM496.2 244.3L496.2 244.3Q495.1 244.3 494.3 243.6Q493.6 242.9 493.6 241.8L493.6 241.8Q493.6 240.8 494.3 240.1Q495.1 239.4 496.2 239.4L496.2 239.4Q497.3 239.4 498.0 240.1Q498.8 240.8 498.8 241.8L498.8 241.8Q498.8 242.9 498.0 243.6Q497.3 244.3 496.2 244.3ZM513.6 246.5L518.7 246.5L512.6 264L507.2 264L501.1 246.5L506.2 246.5L509.8 259.0L510 259.0L513.6 246.5ZM528.6 264.3L528.6 264.3Q525.9 264.3 524.0 263.2Q522.0 262.1 521.0 260.1Q519.9 258.1 519.9 255.4L519.9 255.4Q519.9 252.7 521.0 250.6Q522.0 248.6 523.9 247.5Q525.8 246.3 528.4 246.3L528.4 246.3Q530.1 246.3 531.6 246.9Q533.1 247.4 534.2 248.5Q535.4 249.6 536.0 251.3Q536.6 253.0 536.6 255.2L536.6 255.2L536.6 256.5L521.9 256.5L521.9 253.5L532.0 253.5Q532.0 252.5 531.6 251.7Q531.1 250.9 530.3 250.4Q529.5 249.9 528.5 249.9L528.5 249.9Q527.4 249.9 526.5 250.4Q525.7 250.9 525.2 251.8Q524.7 252.6 524.7 253.7L524.7 253.7L524.7 256.5Q524.7 257.8 525.2 258.8Q525.7 259.7 526.6 260.2Q527.5 260.7 528.7 260.7L528.7 260.7Q529.5 260.7 530.1 260.5Q530.8 260.3 531.3 259.8Q531.8 259.4 532.0 258.7L532.0 258.7L536.5 259Q536.2 260.6 535.1 261.8Q534.1 263.0 532.4 263.7Q530.8 264.3 528.6 264.3Z "/></svg>